<mxfile host="Electron" agent="Mozilla/5.0 (Macintosh; Intel Mac OS X 10_15_7) AppleWebKit/537.36 (KHTML, like Gecko) draw.io/26.0.9 Chrome/128.0.6613.186 Electron/32.2.5 Safari/537.36" version="26.0.9">
  <diagram name="Page-1" id="1J4Qiv1BClBQqHF8en8f">
    <mxGraphModel dx="658" dy="404" grid="1" gridSize="10" guides="1" tooltips="1" connect="1" arrows="1" fold="1" page="1" pageScale="1" pageWidth="827" pageHeight="1169" math="0" shadow="0">
      <root>
        <mxCell id="0" />
        <mxCell id="1" parent="0" />
        <mxCell id="xv0rVGsolp2lyS14kB-R-8" style="edgeStyle=orthogonalEdgeStyle;rounded=0;orthogonalLoop=1;jettySize=auto;html=1;entryX=1;entryY=1;entryDx=0;entryDy=0;exitX=0;exitY=0.5;exitDx=0;exitDy=0;strokeColor=#66B2FF;" edge="1" parent="1" source="xv0rVGsolp2lyS14kB-R-11" target="xv0rVGsolp2lyS14kB-R-10">
          <mxGeometry relative="1" as="geometry">
            <mxPoint x="381.46" y="355" as="sourcePoint" />
            <mxPoint x="229.99553390593277" y="328.5355339059327" as="targetPoint" />
            <Array as="points">
              <mxPoint x="320" y="335" />
              <mxPoint x="320" y="307" />
            </Array>
          </mxGeometry>
        </mxCell>
        <mxCell id="Ge28UA9ioGXEwwiQ3hNJ-1" value="SNMP Agent" style="rounded=0;whiteSpace=wrap;html=1;fontStyle=1" parent="1" vertex="1">
          <mxGeometry x="400" y="240" width="120" height="120" as="geometry" />
        </mxCell>
        <mxCell id="Ge28UA9ioGXEwwiQ3hNJ-5" style="edgeStyle=orthogonalEdgeStyle;rounded=0;orthogonalLoop=1;jettySize=auto;html=1;entryX=0;entryY=0.5;entryDx=0;entryDy=0;exitX=1;exitY=0;exitDx=0;exitDy=0;endArrow=classic;endFill=1;startFill=0;startArrow=none;" parent="1" source="xv0rVGsolp2lyS14kB-R-10" target="xv0rVGsolp2lyS14kB-R-9" edge="1">
          <mxGeometry relative="1" as="geometry">
            <Array as="points">
              <mxPoint x="320" y="293" />
              <mxPoint x="320" y="265" />
            </Array>
          </mxGeometry>
        </mxCell>
        <mxCell id="Ge28UA9ioGXEwwiQ3hNJ-4" value="SNMP Monitoring System" style="rounded=0;whiteSpace=wrap;html=1;fontStyle=1" parent="1" vertex="1">
          <mxGeometry x="120" y="280" width="120" height="40" as="geometry" />
        </mxCell>
        <mxCell id="xv0rVGsolp2lyS14kB-R-9" value="" style="ellipse;whiteSpace=wrap;html=1;aspect=fixed;fillColor=#121212;" vertex="1" parent="1">
          <mxGeometry x="390" y="260" width="10" height="10" as="geometry" />
        </mxCell>
        <mxCell id="xv0rVGsolp2lyS14kB-R-10" value="" style="ellipse;whiteSpace=wrap;html=1;aspect=fixed;fillColor=#121212;" vertex="1" parent="1">
          <mxGeometry x="240" y="290" width="20" height="20" as="geometry" />
        </mxCell>
        <mxCell id="xv0rVGsolp2lyS14kB-R-11" value="" style="ellipse;whiteSpace=wrap;html=1;aspect=fixed;fillColor=#121212;" vertex="1" parent="1">
          <mxGeometry x="390" y="330" width="10" height="10" as="geometry" />
        </mxCell>
        <mxCell id="xv0rVGsolp2lyS14kB-R-14" value="192.168.10.10/24" style="text;html=1;align=center;verticalAlign=middle;whiteSpace=wrap;rounded=0;fontStyle=2" vertex="1" parent="1">
          <mxGeometry x="200" y="250" width="100" height="30" as="geometry" />
        </mxCell>
        <mxCell id="xv0rVGsolp2lyS14kB-R-16" value="192.168.10.12" style="text;html=1;align=center;verticalAlign=middle;whiteSpace=wrap;rounded=0;fontStyle=2" vertex="1" parent="1">
          <mxGeometry x="410" y="250" width="80" height="30" as="geometry" />
        </mxCell>
        <mxCell id="xv0rVGsolp2lyS14kB-R-17" value="192.168.8.12" style="text;html=1;align=center;verticalAlign=middle;whiteSpace=wrap;rounded=0;fontStyle=2" vertex="1" parent="1">
          <mxGeometry x="410" y="320" width="80" height="30" as="geometry" />
        </mxCell>
      </root>
    </mxGraphModel>
  </diagram>
</mxfile>
